<?xml version="1.0" encoding="utf-8"?>
<!-- Generator: Adobe Illustrator 18.1.1, SVG Export Plug-In . SVG Version: 6.00 Build 0)  -->
<svg version="1.1" id="Слой_1" xmlns="http://www.w3.org/2000/svg" xmlns:xlink="http://www.w3.org/1999/xlink" x="0px" y="0px"
	 viewBox="0 0 67 50" enable-background="new 0 0 67 50" xml:space="preserve">
<path fill-rule="evenodd" clip-rule="evenodd" fill="#DFDEDE" d="M56.2,48.1c0.1-0.2,0.2-0.3,0.3-0.5c3.5-4.8,7-9.8,10.3-14.7
	c0.7-1-0.2-2.4-1.3-2.3c-0.6,0-1.2,0-1.7,0c-0.1,0-0.1,0-0.2,0c-2.4,0.1-4.9,0.1-7.3,0.2c-2.7,0.1-5.5-0.2-8,0.8
	c-0.7,0.2-0.7,1.1,0,1.3c2.5,0.9,5.3,0.6,8,0.7c0.4,0,0.8,0,1.2,0c-10.8,4.5-22.8,5-33.5-0.3c-6.1-3-11.3-7.7-15.1-13.3
	C4.6,13.8,3.3,7.4,1.4,0.5C1.2-0.3,0.2-0.1,0.1,0.6C-1.4,15.1,10.9,30.3,23,36.1c11.7,5.7,26.4,5.5,38-0.7c-2.9,4-5.7,8-8.5,12.1
	c-1,1.5,1.4,3.4,2.6,2C55.5,49,55.9,48.5,56.2,48.1z"/>
</svg>
