<?xml version="1.0" encoding="utf-8"?>
<!-- Generator: Adobe Illustrator 18.1.1, SVG Export Plug-In . SVG Version: 6.00 Build 0)  -->
<svg version="1.1" id="Слой_1" xmlns="http://www.w3.org/2000/svg" xmlns:xlink="http://www.w3.org/1999/xlink" x="0px" y="0px"
	 viewBox="0 0 67 50" enable-background="new 0 0 67 50" xml:space="preserve">
<path fill-rule="evenodd" clip-rule="evenodd" fill="#DFDEDE" d="M10.8,48.1c-0.1-0.2-0.2-0.3-0.3-0.5c-3.5-4.8-7-9.8-10.3-14.7
	c-0.7-1,0.2-2.4,1.3-2.3c0.6,0,1.2,0,1.7,0c0.1,0,0.1,0,0.2,0c2.4,0.1,4.9,0.1,7.3,0.2c2.7,0.1,5.5-0.2,8,0.8c0.7,0.2,0.7,1.1,0,1.3
	c-2.5,0.9-5.3,0.6-8,0.7c-0.4,0-0.8,0-1.2,0c10.8,4.5,22.8,5,33.5-0.3c6.1-3,11.3-7.7,15.1-13.3c4.1-6.1,5.4-12.5,7.4-19.4
	c0.2-0.7,1.2-0.5,1.2,0.2C68.4,15.1,56.1,30.3,44,36.1c-11.7,5.7-26.4,5.5-38-0.7c2.9,4,5.7,8,8.5,12.1c1,1.5-1.4,3.4-2.6,2
	C11.5,49,11.2,48.5,10.8,48.1z"/>
</svg>
