<svg xmlns="http://www.w3.org/2000/svg" width="32" height="30" viewBox="0 0 32 30">
  <defs>
    <style>
      .cls-1 {
        fill: #fff;
        fill-rule: evenodd;
      }
    </style>
  </defs>
  <path id="check-icon" data-name="check-icon" class="cls-1" d="M1374.99,554.983a14.456,14.456,0,0,1,1.57-1.374,7.234,7.234,0,0,1,1.68-.954c3.82-1.021,5.72,6.387,5.72,6.387s4.11-5.743,4.21-5.85c0.49-.531,1.71-2.173,3.31-4,0.75-.85,1.63-1.688,2.47-2.567,2.66-2.787,7-6.279,7.52-6.747a14.644,14.644,0,0,1,4.39-2.865,11.532,11.532,0,0,0,1.15,1.015c0.03,0.031-.98.847-2.47,2.09-1.51,1.251-4.79,4.66-5.12,4.835-0.1.055-2.41,2.67-4.93,6.029-0.31.417-1.97,2.584-3.67,5.314-2.12,3.407-4.33,7.463-4.33,7.463-0.21.105-.04,0.027-4.45,3.213-0.09.059-.18-0.046-0.21-0.137a56.889,56.889,0,0,0-2.2-6A20.65,20.65,0,0,0,1374.99,554.983Z" transform="translate(-1375 -537)"/>
</svg>
