<svg xmlns="http://www.w3.org/2000/svg" width="43.35" height="25.03" viewBox="0 0 43.35 25.03">
  <defs>
    <style>
      .cls-1 {
        fill: #d4d4d4;
        fill-rule: evenodd;
      }
    </style>
  </defs>
  <path id="Фигура_23_копия" data-name="Фигура 23 копия" class="cls-1" d="M1271.41,2192.16c-0.97.44-1.85,0.85-2.87,1.32,0.28,0.06.4,0.09,0.52,0.11a2.237,2.237,0,0,1,1.77,1.82,2.48,2.48,0,0,1-.71,2.54,1.822,1.822,0,0,1-2.52.07,1.527,1.527,0,0,1,.04-2.46,0.638,0.638,0,0,1,.89-0.01,0.6,0.6,0,0,1-.14.86c-0.09.09-.22,0.16-0.32,0.25a2.291,2.291,0,0,0-.23.21,1.1,1.1,0,0,0,.99.91,1.317,1.317,0,0,0,1.13-.84,1.863,1.863,0,0,0-1.47-2.55,8.4,8.4,0,0,0-1.22.07c-2.04.12-3.77,1.26-5.73,1.66-0.64.14-1.26,0.36-1.9,0.48a1.653,1.653,0,0,1-2.02-1.11c-0.05-.13-0.09-0.26-0.14-0.38-0.31-.68-0.18-1,0.51-1.2a2.1,2.1,0,0,1,.56-0.08,27.452,27.452,0,0,0,6.37-.99c0.66-.16,1.33-0.29,1.99-0.43a4.1,4.1,0,0,0,.71-0.18,0.98,0.98,0,0,0,.62-1.55,3.217,3.217,0,0,0-2.3-2.01c-0.56-.12-0.66-0.05-0.94.53a1.577,1.577,0,0,0,.26.13,0.6,0.6,0,0,1,.6.63,0.883,0.883,0,0,1-.67.83,1.2,1.2,0,0,1-1.5-1.09,1.8,1.8,0,0,1,2.02-1.97,4.161,4.161,0,0,1,3.39,3.33,3.961,3.961,0,0,1,.01.99c0.71-.32,1.39-0.62,2.14-0.95-0.18-.22-0.3-0.39-0.44-0.54a5.149,5.149,0,0,1-1.38-2.55,2.393,2.393,0,0,1,1.12-2.74c0.84-.55,1.68-1.1,2.56-1.59a6.583,6.583,0,0,0,2.07-1.93c0.27-.35.43-0.95,1.11-0.66a0.657,0.657,0,0,0,.25-0.18,2.4,2.4,0,0,1,.58-0.44,12.449,12.449,0,0,1,4.12-.96,4.1,4.1,0,0,1,.91.25c1.26-1,2.67-2.1,4.57-1.77a18.919,18.919,0,0,1,5.24-4.04,2.457,2.457,0,0,1,.51-0.13,12.441,12.441,0,0,0-.1,1.42c0.02,0.45.13,0.89,0.19,1.32,1.37-.87,2.69-1.72,4.02-2.54a3.824,3.824,0,0,1,.96-0.45c0.71-.22,1.04.07,0.96,0.82a6.97,6.97,0,0,1-.91,2.77c-0.14.25-.27,0.51-0.51,0.95,1.09-.21,1.99-0.4,2.89-0.55a0.742,0.742,0,0,1,.58.08c0.22,0.22.03,0.47-.15,0.63-0.8.77-1.6,1.55-2.44,2.28a3.975,3.975,0,0,0-.95,1.2,8.279,8.279,0,0,1-2.22,3.08,0.486,0.486,0,0,0-.19.24,1.076,1.076,0,0,1-.79,1.1,8.075,8.075,0,0,0-2.13,2.23,4.166,4.166,0,0,1-1.5,1.36c-1.27.73-2.55,1.42-3.82,2.16a4.893,4.893,0,0,0-.94.76,6.571,6.571,0,0,1-2.75,1.7,6.4,6.4,0,0,0-1.09.52,6.793,6.793,0,0,1-2.32.75,15.256,15.256,0,0,0-2.23.48,4.141,4.141,0,0,1-5.32-2.98C1271.65,2192.86,1271.54,2192.58,1271.41,2192.16Zm5.32-2.2a15.682,15.682,0,0,1,.86,1.35,3.645,3.645,0,0,0,2.04,1.78c0.43,0.17.87,0.32,1.3,0.49a2.509,2.509,0,0,0,2.28-.15,6.87,6.87,0,0,0,1.48-1.14,5.319,5.319,0,0,1,1.96-1.42c0.21-.08.4-0.22,0.75-0.4-0.46-.14-0.76-0.24-1.07-0.32a3.482,3.482,0,0,1-2.09-1.33,3.529,3.529,0,0,0-.56-0.6,1.645,1.645,0,0,0-1.96-.37c-1.38.66-2.81,1.18-4.22,1.76C1277.25,2189.71,1277.01,2189.83,1276.73,2189.96Zm4-9.57a0.326,0.326,0,0,0-.15-0.07c-1.72.41-3.39,0.87-4.22,2.68a2.407,2.407,0,0,1-.3.48,0.966,0.966,0,0,0-.03,1.08,5.593,5.593,0,0,1,.77,4.23c1.09-.42,2.04-0.81,3.01-1.15a2.067,2.067,0,0,0,1.2-2.91A5.832,5.832,0,0,1,1280.73,2180.39Zm10.77-5.38a3.814,3.814,0,0,0-.66.4,50.043,50.043,0,0,0-3.65,3.49,3.323,3.323,0,0,0-.75,2.94c0.14,0.71.26,1.42,0.4,2.17a14.869,14.869,0,0,0,3.84-2.58,3.977,3.977,0,0,0,1.26-3.78C1291.75,2176.83,1291.66,2175.99,1291.5,2175.01Zm-16.47,8.5c-0.63.47-1.1,0.87-1.62,1.21-0.75.49-1.51,0.96-2.28,1.42a1.231,1.231,0,0,0-.68,1.2,5.406,5.406,0,0,0,1.46,3.45c1.14-.49,2.24-0.95,3.32-1.45a1.914,1.914,0,0,0,.91-1.78,10.55,10.55,0,0,0-.68-2.08A3.167,3.167,0,0,1,1275.03,2183.51Zm17.46,2.53a0.35,0.35,0,0,0-.15-0.09,7.7,7.7,0,0,1-3.7-.74,2.013,2.013,0,0,0-2.26.19,19.972,19.972,0,0,1-2.09,1.26,3.318,3.318,0,0,0-.27.21,11.492,11.492,0,0,1,.89,1.34,2.061,2.061,0,0,0,1.17,1.06,13.287,13.287,0,0,0,1.4.42,3.156,3.156,0,0,0,3.25-1.2A21.221,21.221,0,0,0,1292.49,2186.04Zm6.18-7.35a9.037,9.037,0,0,0-4.95,1.5c-0.38.25-.82,0.4-1.17,0.68-0.95.76-1.87,1.57-2.81,2.35-0.24.21-.5,0.4-0.76,0.6a4.621,4.621,0,0,0,3.15,1.32,2.6,2.6,0,0,0,2.72-1.35c0.4-.77.8-1.55,1.14-2.35a4.344,4.344,0,0,1,1.39-1.78C1297.81,2179.34,1298.24,2179.01,1298.67,2178.69Zm-12.58-.1a2.834,2.834,0,0,0-1.75.63,24.894,24.894,0,0,1-2.25,1.88,1.633,1.633,0,0,0-.71,2.01,5.856,5.856,0,0,0,.33,1,4.117,4.117,0,0,1,.37,1.98,5.733,5.733,0,0,0,0,.6c1.15-.62,2.19-1.13,3.18-1.73a1.38,1.38,0,0,0,.62-1.42,6.6,6.6,0,0,0-.21-0.96,4.776,4.776,0,0,1-.03-2.65C1285.76,2179.51,1285.91,2179.11,1286.09,2178.59Zm-5.11,15.91a0.97,0.97,0,0,0-.01-0.17c-0.53-.2-1.06-0.39-1.59-0.59a4.6,4.6,0,0,1-2.56-2.02,2.915,2.915,0,0,0-1.3-1.25c-0.63.24-1.29,0.47-1.95,0.74-0.44.18-.87,0.41-1.35,0.63,0.12,0.44.22,0.83,0.35,1.21a4.319,4.319,0,0,0,.28.67,3.311,3.311,0,0,0,3.69,1.72c1.04-.22,2.08-0.41,3.11-0.62C1280.1,2194.73,1280.54,2194.61,1280.98,2194.5Zm11.64-14.52a11.306,11.306,0,0,1,3.19-1.7,0.569,0.569,0,0,0,.31-0.23c0.48-.97.95-1.95,1.39-2.93a3.4,3.4,0,0,0,.14-0.78,1.8,1.8,0,0,0-.26.07,25.165,25.165,0,0,0-4.37,3.25,0.733,0.733,0,0,0-.18.42C1292.76,2178.68,1292.7,2179.3,1292.62,2179.98ZM1258.43,2195a0.263,0.263,0,0,0,.01.12c0.39,0.61.76,0.74,1.7,0.48a40.357,40.357,0,0,0,5.84-2.03c0.14-.07.27-0.17,0.52-0.33C1263.7,2193.85,1261.07,2194.42,1258.43,2195Zm20.42-4.52a4.957,4.957,0,0,1,3.43-1.5A5.14,5.14,0,0,1,1278.85,2190.48Zm-1.01-7.91a7.013,7.013,0,0,0-.44,1.52,7.745,7.745,0,0,0,.26,1.67C1276.46,2184.65,1276.58,2183.15,1277.84,2182.57Zm9.91-3.15c-0.16.74-.32,1.48-0.49,2.25A1.581,1.581,0,0,1,1287.75,2179.42Zm-15.32,6.53c-0.29.3-.53,0.51-0.73,0.75s-0.35.53-.55,0.82A1.4,1.4,0,0,1,1272.43,2185.95Zm16.15-.11a5.2,5.2,0,0,1-2.7,1.58A3.341,3.341,0,0,1,1288.58,2185.84Zm2.36-2.27a7.054,7.054,0,0,1,2.39-2.03A2.887,2.887,0,0,1,1290.94,2183.57Zm-8.12.7c-0.83-.84-0.83-1.81,0-2.4v2.4Zm-7.05,7.3a3.368,3.368,0,0,1-2.07,1.03A2.432,2.432,0,0,1,1275.77,2191.57Zm18.06-13.57a4.78,4.78,0,0,1,1.9-1.83A3.236,3.236,0,0,1,1293.83,2178Z" transform="translate(-1257.31 -2173.47)"/>
</svg>
