<?xml version="1.0" encoding="utf-8"?>
<!-- Generator: Adobe Illustrator 18.1.1, SVG Export Plug-In . SVG Version: 6.00 Build 0)  -->
<svg version="1.1" id="Слой_1" xmlns="http://www.w3.org/2000/svg" xmlns:xlink="http://www.w3.org/1999/xlink" x="0px" y="0px"
	 viewBox="0 0 16 15" enable-background="new 0 0 16 15" xml:space="preserve">
<path fill-rule="evenodd" clip-rule="evenodd" fill="#DFDEDE" d="M12.6,15c-0.1,0-0.2,0-0.3-0.1L8,12.7l-4.3,2.2
	c-0.2,0.1-0.4,0.1-0.6,0c-0.2-0.1-0.3-0.3-0.2-0.5l0.8-4.7L0.2,6.3C0,6.1,0,5.9,0,5.7c0.1-0.2,0.2-0.4,0.5-0.4l4.8-0.7l2.2-4.3
	C7.6,0.1,7.8,0,8,0c0.2,0,0.4,0.1,0.5,0.3l2.2,4.3l4.8,0.7c0.2,0,0.4,0.2,0.5,0.4c0.1,0.2,0,0.4-0.1,0.6l-3.5,3.4l0.8,4.7
	c0,0.2-0.1,0.4-0.2,0.5C12.8,15,12.7,15,12.6,15z M1.8,6.3L4.7,9c0.1,0.1,0.2,0.3,0.2,0.5l-0.7,3.9l3.6-1.8c0.2-0.1,0.4-0.1,0.5,0
	l3.6,1.8l-0.7-3.9c0-0.2,0-0.4,0.2-0.5l2.9-2.8l-4-0.6c-0.2,0-0.3-0.1-0.4-0.3L8,1.8L6.2,5.4C6.1,5.5,6,5.7,5.8,5.7L1.8,6.3z"/>
</svg>
