<svg id="Слой_1" data-name="Слой 1" xmlns="http://www.w3.org/2000/svg" viewBox="0 0 32 29.95"><defs><style>.cls-1{fill:#70a64c;}</style></defs><title>tickalt</title><path class="cls-1" d="M29.5,3.1C28,4.4,24.7,7.8,24.4,7.9c-0.1.1-2.4,2.7-4.9,6-0.3.4-2,2.6-3.7,5.3-2.1,3.4-4.3,7.5-4.3,7.5-0.2.1,0,0-4.5,3.2-0.1.1-.2,0-0.2-0.1a47.84,47.84,0,0,0-2.2-6A20.1,20.1,0,0,0,0,18a19.21,19.21,0,0,1,1.6-1.4,6.56,6.56,0,0,1,1.7-1C7.1,14.6,9,22,9,22s4.1-5.7,4.2-5.9c0.5-.5,1.7-2.2,3.3-4,0.7-.8,1.6-1.7,2.5-2.6a98,98,0,0,1,7.5-6.7A14.67,14.67,0,0,1,30.9,0,11,11,0,0,0,32,1S31,1.8,29.5,3.1Z" transform="translate(0 0.01)"/></svg>