<?xml version="1.0" encoding="utf-8"?>
<!-- Generator: Adobe Illustrator 18.1.1, SVG Export Plug-In . SVG Version: 6.00 Build 0)  -->
<svg version="1.1" id="Слой_1" xmlns="http://www.w3.org/2000/svg" xmlns:xlink="http://www.w3.org/1999/xlink" x="0px" y="0px"
	 viewBox="0 0 62 50" enable-background="new 0 0 62 50" xml:space="preserve">
<path fill="#78BC48" d="M61.1,2.1c-1.1-1.1-3-1.1-4.1,0l-6.7,6.7v-8c0-1-0.8-0.7-1.8-0.7H1.9C0.9,0,0-0.2,0,0.8V47c0,1,0.9,3,1.9,3
	h46.6c1,0,1.8-2,1.8-3V17L61.2,6.2C62.3,5,62.3,3.2,61.1,2.1z M46.8,46.5H3.5v-43h43.3v8.7l-19.2,19L13.2,16.9c-1.1-1.1-3-1.1-4.2,0
	c-1.1,1.1-1.2,3,0,4.1l16.5,16.4c0.6,0.6,1.3,0.9,2.1,0.9c0.8,0,1.5-0.3,2.1-0.9l17.1-17V46.5z"/>
</svg>
